<?xml version="1.0" encoding="utf-8"?>
<!-- Generator: Adobe Illustrator 19.2.1, SVG Export Plug-In . SVG Version: 6.00 Build 0)  -->
<svg version="1.1" id="Layer_1" xmlns="http://www.w3.org/2000/svg" xmlns:xlink="http://www.w3.org/1999/xlink" x="0px" y="0px"
	 viewBox="0 0 865 300" style="enable-background:new 0 0 865 300;" xml:space="preserve">
<g>
	<path d="M111.7,271.4c8.2-3,58.5-26,58.8-26.1c1-0.4,5.8-0.3,6.8-0.3c2.5,0,5.1,0,7.6,0c6.7,0,13.5,0,20.2,0c7.6,0,15.1,0,22.7,0
		c6.7,0,13.4,0,20,0c4.1,0,8.2,0,12.3,0c0.6,0,1.1,0.2,1.7,0.2c0,0,16.6-0.8,17.1-19.3c0.5-18.5,0-18.2,0-18.2s-8.2-48.1-43.5-56
		c0,0,12.3-54.8-37.8-80.4c0,0-84.2,44.6-91.7,83.2c0,0-4.8,18.1,22.6,18.6c0,0,9.8,0.2,22-4.4s79.1-26.1,84.5-0.2
		s-52.1,62.7-52.1,62.7S143.5,259.6,111.7,271.4z"/>
	<path d="M134,245H16.8c0,0-15.3-1.7-16.8-24.9s7.5-52.5,31-68.8c0,0,3.8-53.1,50.6-59.4c0,0,17.6-2.5,31.9,6.2c0,0,25.1-43.1,73-31
		l38.5-11.3c0,0-164.8,60.9-181.5,117.9c0,0-10.7,42.7,97.9,3.9C141.3,177.5,220.2,171,134,245z"/>
	<circle cx="246.4" cy="41.7" r="13.1"/>
	<path d="M415,149.5V140h-52.6c0,0-15.4-1-15.4,14.5v7.3c0,0-0.9,11.2,17.2,11.2c18.1,0,32.2,0,32.2,0s4.7,1.6,4.7,5.9l0,4.3
		c0,0,0.6,3.9-9,3.9h-45v11.9l52.4-0.4c0,0,19.6,0.7,19.6-14.2v-10.2c0,0,0.6-10.6-18.1-10.6s-33.6-0.2-33.6-0.2s-4.9-0.2-5-6.4
		s4.2-7.3,6.9-7.3C372,149.8,415,149.5,415,149.5z"/>
	<path d="M788,149.5V140h-52.7c0,0-15.3-1-15.3,14.5v7.3c0,0-1.1,11.2,17.1,11.2c18.1,0,32.2,0,32.2,0s4.7,1.6,4.7,5.9l0,4.3
		c0,0,0.6,3.9-9,3.9H720v11.9l52.4-0.4c0,0,19.6,0.7,19.6-14.2v-10.2c0,0,0.5-10.6-18.1-10.6s-33.7-0.2-33.7-0.2s-4.9-0.2-5-6.4
		s4.3-7.3,7-7.3C744.9,149.8,788,149.5,788,149.5z"/>
	<polygon points="445,198 445,169.3 475.1,198 497.4,198 465.1,167.8 492.6,142.7 519,171.9 519,198 534,198 534,172 565.1,139 
		544.4,139 526.6,160.7 508.2,139 475.6,139 445.9,167.1 446.2,139 429,139 429,198 	"/>
	<polygon points="567,198 585,198 585,173 614,173 614,198 631,198 631,139 614,139 614,162 585,162 585,139 567,139 	"/>
	<path d="M685.3,139h-18.6l-32.1,59.5l17.6-0.3l7.3-14.1h32.2l7.7,14h18.8L685.3,139z M664.7,173l10.9-22.6l10.9,22.6H664.7z"/>
	<polygon points="802,198 820,198 820,173 849,173 849,198 865,198 865,139 849,139 849,162 820,162 820,139 802,139 	"/>
</g>
</svg>
